<svg width="643" height="643" xmlns="http://www.w3.org/2000/svg" xmlns:xlink="http://www.w3.org/1999/xlink" xml:space="preserve" overflow="hidden"><defs><clipPath id="clip0"><rect x="52" y="50" width="643" height="643"/></clipPath><clipPath id="clip1"><path d="M52.9132 370.374 374.74 50.7984 694.316 372.625 372.489 692.202Z" fill-rule="evenodd" clip-rule="evenodd"/></clipPath><clipPath id="clip2"><path d="M52.9132 370.374 374.74 50.7984 694.316 372.625 372.489 692.202Z" fill-rule="evenodd" clip-rule="evenodd"/></clipPath><clipPath id="clip3"><path d="M52.9132 370.374 374.74 50.7984 694.316 372.625 372.489 692.202Z" fill-rule="evenodd" clip-rule="evenodd"/></clipPath></defs><g clip-path="url(#clip0)" transform="translate(-52 -50)"><g clip-path="url(#clip1)"><g clip-path="url(#clip2)"><g clip-path="url(#clip3)"><path d="M375.214 106.255C365.86 106.223 341.015 141.547 322.53 173.218 336.908 169.594 353.618 167.648 371.658 167.711 390.365 167.777 407.061 169.84 421.746 173.9 402.818 141.429 384.903 105.955 375.214 106.255Z" stroke="#000000" stroke-width="4.72436" fill="#5CFE50"/><path d="M283.361 387.219 267.636 394.179C261.278 397.163 257.248 403.162 256.889 410.176L256.516 516.409C256.455 533.78 279.481 540.876 288.887 526.21L323.486 471.879C310.529 451.455 294.26 423.002 283.361 387.219Z" stroke="#000000" stroke-width="4.72436" fill="#5CFE50"/><path d="M459.084 386.499C448.274 420.536 433.144 448.211 419.04 468.873L455.919 526.797C465.221 541.528 488.294 535.262 488.357 517.222L488.73 410.99C488.753 404.309 484.768 397.613 478.096 394.917L459.084 386.499Z" stroke="#000000" stroke-width="4.72436" fill="#5CFE50"/><path d="M310.419 197.229C298.63 224.915 289.818 260.963 289.665 304.392 289.386 383.899 325.589 443.824 349.534 474.643L390.958 474.788C415.118 444.138 452.409 384.471 452.688 304.964 452.841 261.535 444.615 225.761 433.02 197.993 417.676 191.258 395.977 186.839 370.924 186.417 347.204 186.668 325.81 190.601 310.419 197.229ZM399.421 252.662C399.367 268.029 386.628 280.679 370.926 280.958 355.559 280.904 342.909 268.165 342.63 252.463 342.684 237.096 355.423 224.446 371.125 224.167 386.825 224.556 399.475 237.295 399.421 252.662Z" stroke="#000000" stroke-width="4.72436" fill="#5CFE50"/><path d="M370.171 496.095C359.481 496.058 351.163 486.341 351.086 508.389 351.009 530.437 359.549 571.892 369.904 572.262 380.594 572.299 389.092 530.571 389.169 508.523 388.914 486.139 380.528 495.798 370.171 496.095Z" stroke="#000000" stroke-width="4.72436" fill="#5CFE50"/></g></g></g></g></svg>